<svg xmlns="http://www.w3.org/2000/svg" viewBox="0 0 400 500" preserveAspectRatio="none" fill="#fff">
<defs><linearGradient id="edge-fade"><stop offset="0" stop-color="#fff" stop-opacity="0"/><stop offset=".28" stop-color="#fff" stop-opacity=".65"/><stop offset=".6" stop-color="#fff"/></linearGradient><mask id="edge"><path fill="url(#edge-fade)" d="M0 0H400V500H0Z"/></mask></defs>
<g mask="url(#edge)">
<path opacity=".5" d="M0 500L28 371L58 431L102 287L153 396L184 357L221 217L269 377L299 302L335 402L373 226L400 331V500Z"/><g fill="none" stroke="#fff" stroke-width="6" stroke-linecap="round"><path d="M286 92V216M232 123L340 185M232 185L340 123M268 108L286 126L304 108M250 126L257 151L232 158M322 126L315 151L340 158M268 200L286 182L304 200"/><path d="M77 177V243M49 193L105 227M49 227L105 193"/></g><path opacity=".75" d="M146 331L155 350L146 369L137 350ZM357 55L365 75L357 95L349 75Z"/>
</g>
</svg>
